<svg xmlns="http://www.w3.org/2000/svg" viewBox="0 0 30 30"><defs><style>.cls-1{fill:#f2db55;}</style></defs><title>backspace</title><g id="клава_рус" data-name="клава рус"><path class="cls-1" d="M3.41,15.11,8.48,21c.31.37.84-.17.53-.53L3.94,14.58c-.31-.37-.84.16-.53.53Z"/><path class="cls-1" d="M8.24,9.2,3.49,14.39c-.32.36.21.89.53.53L8.77,9.73c.32-.36-.21-.89-.53-.53Z"/><path class="cls-1" d="M8.8,21.21l15,.06a.38.38,0,0,0,0-.75l-15-.06a.38.38,0,0,0,0,.75Z"/><path class="cls-1" d="M8.56,9.78l15.28,0a.38.38,0,0,0,0-.75L8.56,9a.38.38,0,0,0,0,.75Z"/><path class="cls-1" d="M23.47,9.37,23.4,20.89a.38.38,0,0,0,.75,0l.07-11.52a.38.38,0,0,0-.75,0Z"/><path class="cls-1" d="M13.56,13l4.94,4.55c.35.33.88-.2.53-.53l-4.94-4.55c-.35-.32-.88.21-.53.53Z"/><path class="cls-1" d="M18.5,12.49,13.56,17c-.35.33.18.86.53.53L19,13c.35-.32-.18-.85-.53-.53Z"/></g></svg>