<svg xmlns="http://www.w3.org/2000/svg" viewBox="0 0 30 30"><defs><style>.cls-1{fill:#3ccddd;}</style></defs><title>shift</title><g id="клава_рус" data-name="клава рус"><path class="cls-1" d="M14.39,3.63,7,15.75a.38.38,0,0,0,.65.38L15,4c.25-.41-.4-.79-.65-.37Z"/><path class="cls-1" d="M7.33,16.32h3.5a.38.38,0,0,0,0-.75H7.33a.38.38,0,0,0,0,.75Z"/><path class="cls-1" d="M22.49,15.75l-7.33-12c-.25-.42-.9,0-.64.37l7.32,12a.38.38,0,0,0,.65-.38Z"/><path class="cls-1" d="M18.63,16.32h3.54a.38.38,0,0,0,0-.75H18.63a.38.38,0,0,0,0,.75Z"/><path class="cls-1" d="M10.46,15.94l.11,10.24a.38.38,0,0,0,.75,0l-.11-10.24a.38.38,0,0,0-.75,0Z"/><path class="cls-1" d="M18.25,16l.11,10.16a.38.38,0,0,0,.75,0L19,16a.38.38,0,0,0-.75,0Z"/><path class="cls-1" d="M18.74,25.73l-7.8.07a.38.38,0,0,0,0,.75l7.8-.07a.38.38,0,0,0,0-.75Z"/></g></svg>