<svg xmlns="http://www.w3.org/2000/svg" viewBox="0 0 30 30"><defs><style>.cls-1{fill:#3ccddd;}</style></defs><title>switch</title><g id="клава_рус" data-name="клава рус"><path class="cls-1" d="M22,8.33A14.91,14.91,0,0,1,8.52,8.24c-.42-.23-.8.42-.37.65A15.65,15.65,0,0,0,22.39,9c.43-.22.05-.87-.38-.65Z"/><path class="cls-1" d="M24.34,15c-.56,10.41-15.6,12.44-18,1.93a9.23,9.23,0,0,1,8.9-11c5.16,0,8.85,4.2,9.11,9.12,0,.48.78.48.75,0-.28-5.18-4-9.56-9.34-9.84A10,10,0,0,0,5.43,16c1.25,12.2,19,10.87,19.66-1C25.12,14.46,24.37,14.46,24.34,15Z"/><path class="cls-1" d="M5.75,15.33h19a.38.38,0,0,0,0-.75h-19a.38.38,0,0,0,0,.75Z"/><path class="cls-1" d="M14.84,5.51V24a.38.38,0,0,0,.75,0V5.51a.38.38,0,0,0-.75,0Z"/><path class="cls-1" d="M14.75,5.15c-6.34,2.64-6.66,17.1,0,19.34.46.15.66-.57.2-.72C9.21,21.83,9.34,8.21,15,5.87c.44-.18.24-.91-.2-.72Z"/><path class="cls-1" d="M22.25,20.87A15.45,15.45,0,0,0,7.93,21c-.42.23,0,.88.38.64a14.75,14.75,0,0,1,13.56-.09c.43.23.81-.42.38-.64Z"/><path class="cls-1" d="M15.33,5.86c5.78,2.34,5.82,16-.05,17.91-.46.15-.26.87.2.72,6.84-2.23,6.51-16.73,0-19.36-.45-.18-.64.55-.2.73Z"/></g></svg>