    <svg xmlns="http://www.w3.org/2000/svg" viewBox="0 0 70 70">
      <g>
        <path d="M35,31a4,4,0,1,1-4,4,4,4,0,0,1,4-4ZM21.64,13.51C14.21,10,8.3,20.26,14,24.53a45.86,45.86,0,0,0,6.21,3.24,61.24,61.24,0,0,1,9.37,5.48,5.73,5.73,0,0,1,3.73-3.71c-1.08-2.13-7.28-14-11.64-16ZM45.47,14a45.86,45.86,0,0,0-3.24,6.21,61.24,61.24,0,0,1-5.48,9.37,5.71,5.71,0,0,1,3.71,3.73c2.13-1.08,14-7.28,16-11.64C60,14.21,49.74,8.3,45.47,14Zm-5,22.78a5.71,5.71,0,0,1-3.73,3.71c1.08,2.13,7.28,14,11.64,16C55.79,60,61.7,49.74,56,45.47a45.86,45.86,0,0,0-6.21-3.24,61.24,61.24,0,0,1-9.37-5.48Zm-10.91,0c-2.15,1.07-14,7.31-16,11.64C10,55.79,20.26,61.7,24.53,56a45.86,45.86,0,0,0,3.24-6.21,61.24,61.24,0,0,1,5.48-9.37A5.75,5.75,0,0,1,29.54,36.72Z"/>
      </g>
    </svg>