<svg id="Слой_1" data-name="Слой 1" xmlns="http://www.w3.org/2000/svg" viewBox="0 0 70 70"><defs><style>.cls-1{fill:#231f20;}</style></defs><title>fire</title><g id="главная"><path class="cls-1" d="M46.56,13.7c-.6,4.48-1.39,9-2.39,13.39-3.1-9.3-6.81-20-15.2-23.19,3.17,7.86,1.57,16.82-.83,24.82-.9-2-2.71-3.27-3.61-5.18C23.33,29.32,22,35,20.6,40.73c-1-2.28-3-3.92-3.93-6.1-3.41,8.63-3.16,16.52.47,22.15s10.37,9,17.34,9.3,14-2.56,17.83-8.56,4.57-15.08,1.47-26.34A69.55,69.55,0,0,0,46.56,13.7Zm3.9,38.06a16.42,16.42,0,0,1-11,9.76C29.82,64.49,19.15,58,21,45.21c1.42,1.52,3.72,2.06,5.15,3.62-.48-3.74.38-8.24,1.44-11.86,1.1,1.35,3,1.86,4.1,3.22a77.44,77.44,0,0,0,4-18.5C41.09,27,43.68,36.14,44,44.22c1.79-4.17,3.51-8.3,5.21-12.33C52.19,40.07,52.47,46.73,50.46,51.76Z"/></g></svg>