<svg id="Слой_1" data-name="Слой 1" xmlns="http://www.w3.org/2000/svg" viewBox="0 0 70 70"><defs><style>.cls-1{fill:#fff;}.cls-2{fill:#940bff;}</style></defs><title>icon_history</title><g id="главная"><path class="cls-1" d="M13.21,30.21A23.42,23.42,0,0,0,15.93,45.7a22.78,22.78,0,0,0,12,10.1,20.29,20.29,0,0,0,7.84,1.13,21.1,21.1,0,0,0,7.72-1.81,24.15,24.15,0,0,0,6.63-4.46c.46-.48,1-.92,1.4-1.44l1.28-1.54L53.91,46c.37-.56.64-1.17,1-1.75a21.44,21.44,0,0,0,2.17-7.61,18.86,18.86,0,0,0-1-7.81,22.71,22.71,0,0,0-3.82-7,25,25,0,0,0-6.05-5.24c-.59-.33-1.14-.73-1.75-1l-1.83-.84-1.2-.42-.71-.25a10,10,0,0,0-1.43-.38,30.81,30.81,0,0,1,.31,3.48,21.85,21.85,0,0,0-10-5.49A26.76,26.76,0,0,1,42.45,7.87a35,35,0,0,0-2.39,2.78,13.4,13.4,0,0,1,1.62.44l.79.28,1.37.48,2.06,1c.7.31,1.32.75,2,1.12a28.38,28.38,0,0,1,6.85,5.94,25.66,25.66,0,0,1,4.37,8,22,22,0,0,1,1.12,9.07,24.51,24.51,0,0,1-2.51,8.77c-.37.67-.68,1.37-1.1,2l-1.27,1.89-1.45,1.76c-.49.59-1.06,1.09-1.59,1.63A27.36,27.36,0,0,1,44.77,58,24.43,24.43,0,0,1,35.9,60.1a23.24,23.24,0,0,1-9-1.31A25.93,25.93,0,0,1,13.17,47.28a26.63,26.63,0,0,1-3.08-17.62Z"/><line class="cls-2" x1="32.35" y1="38.97" x2="44.17" y2="42.93"/><path class="cls-1" d="M31.85,40.78l11.83,4c2.29.77,3.27-2.85,1-3.61l-11.82-4c-2.3-.77-3.28,2.85-1,3.62Z"/><path class="cls-1" d="M31,24.15v15a1.88,1.88,0,0,0,3.75,0v-15a1.88,1.88,0,0,0-3.75,0Z"/></g></svg>