<svg xmlns="http://www.w3.org/2000/svg" viewBox="0 0 90 90"><defs><style>.cls-1{fill:none;stroke:#231f20;stroke-linecap:round;stroke-miterlimit:10;stroke-width:3px;}</style></defs><title>home</title><path class="cls-1" d="M8.3,46.89,42.85,13.07a3.37,3.37,0,0,1,4.27,0L81.7,47.23"/><path class="cls-1" d="M17.37,52.49V75a2.72,2.72,0,0,0,2.72,2.73H33.44A2.73,2.73,0,0,0,36.17,75V55.22a2.72,2.72,0,0,1,2.72-2.73h12a2.72,2.72,0,0,1,2.72,2.73V75a2.73,2.73,0,0,0,2.73,2.73H70A2.73,2.73,0,0,0,72.7,75V52.49"/></svg>