<svg id="Слой_1" data-name="Слой 1" xmlns="http://www.w3.org/2000/svg" viewBox="0 0 90 90"><defs><style>.cls-1{fill:none;stroke:#231f20;stroke-miterlimit:10;stroke-width:3px;}</style></defs><title>settings</title><path class="cls-1" d="M51.87,20.9a25,25,0,0,1,2.72,1,26.84,26.84,0,0,1,2.59,1.25l4.39-4.39h0a1.67,1.67,0,0,1,2.37,0h0l7.34,7.34h0a1.67,1.67,0,0,1,0,2.37h0L66.9,32.82a26.84,26.84,0,0,1,1.25,2.59,25,25,0,0,1,.95,2.72h6.21A1.68,1.68,0,0,1,77,39.8V50.2a1.68,1.68,0,0,1-1.68,1.67H69.1a25,25,0,0,1-.95,2.72,26.84,26.84,0,0,1-1.25,2.59l4.39,4.39h0a1.67,1.67,0,0,1,0,2.37h0l-7.34,7.34h0a1.67,1.67,0,0,1-2.37,0h0L57.18,66.9a26.84,26.84,0,0,1-2.59,1.25,25,25,0,0,1-2.72.95v6.21A1.68,1.68,0,0,1,50.2,77H39.8a1.68,1.68,0,0,1-1.67-1.68V69.1a25,25,0,0,1-2.72-.95,24.68,24.68,0,0,1-2.59-1.25l-4.39,4.39h0a1.67,1.67,0,0,1-2.37,0h0l-7.34-7.34h0a1.67,1.67,0,0,1,0-2.37h0l4.38-4.39a26.84,26.84,0,0,1-1.25-2.59,25,25,0,0,1-1-2.72H14.69A1.68,1.68,0,0,1,13,50.2V39.8a1.68,1.68,0,0,1,1.68-1.67H20.9a25,25,0,0,1,1-2.72,26.84,26.84,0,0,1,1.25-2.59l-4.39-4.39h0a1.67,1.67,0,0,1,0-2.37h0l7.34-7.34h0a1.67,1.67,0,0,1,2.37,0h0l4.39,4.38a24.68,24.68,0,0,1,2.59-1.25,25,25,0,0,1,2.72-1V14.69A1.68,1.68,0,0,1,39.8,13H50.2a1.68,1.68,0,0,1,1.67,1.68V20.9Z"/><path class="cls-1" d="M45,33a11.95,11.95,0,1,1-8.46,3.5A12,12,0,0,1,45,33Z"/></svg>